<svg width="24" height="25" viewBox="0 0 24 25" fill="none" xmlns="http://www.w3.org/2000/svg">
<g id="tabler-icon-cloud-lock">
<path id="Vector" d="M18.9998 18.7206C19.928 18.7206 20.8183 18.3519 21.4746 17.6955C22.131 17.0391 22.4998 16.1489 22.4998 15.2206C22.4998 14.2924 22.131 13.4021 21.4746 12.7457C20.8183 12.0894 19.928 11.7206 18.9998 11.7206H17.9998C18.3968 9.95262 17.7148 8.12762 16.2118 6.93362C14.7088 5.74062 12.6118 5.35862 10.7118 5.93362C8.81176 6.50862 7.39676 7.95262 6.99976 9.72062C4.80076 9.63262 2.84476 11.0466 2.33376 13.0936C1.82176 15.1406 2.89776 17.2476 4.89976 18.1206M10 15.7202V13.7202C10 13.1898 10.2107 12.6811 10.5858 12.306C10.9609 11.9309 11.4696 11.7202 12 11.7202C12.5304 11.7202 13.0391 11.9309 13.4142 12.306C13.7893 12.6811 14 13.1898 14 13.7202V15.7202M8 16.7202C8 16.455 8.10536 16.2006 8.29289 16.0131C8.48043 15.8256 8.73478 15.7202 9 15.7202H15C15.2652 15.7202 15.5196 15.8256 15.7071 16.0131C15.8946 16.2006 16 16.455 16 16.7202V19.7202C16 19.9854 15.8946 20.2398 15.7071 20.4273C15.5196 20.6149 15.2652 20.7202 15 20.7202H9C8.73478 20.7202 8.48043 20.6149 8.29289 20.4273C8.10536 20.2398 8 19.9854 8 19.7202V16.7202Z" stroke="#687076" stroke-width="2" stroke-linecap="round" stroke-linejoin="round"/>
</g>
</svg>
