<svg xmlns="http://www.w3.org/2000/svg" xmlns:xlink="http://www.w3.org/1999/xlink" viewBox="0 0 473.22461 143.60303"><defs><linearGradient id="linear-gradient" x1="-660.12752" y1="-552.70911" x2="-659.12752" y2="-552.70911" gradientTransform="matrix(-0.44, -44.21999, -44.21999, 0.44, -24647.47274, -28903.59447)" gradientUnits="userSpaceOnUse"><stop offset="0" stop-color="#7117ea"/><stop offset="0.2" stop-color="#ab4fcf"/><stop offset="0.56" stop-color="#ce60b0"/><stop offset="0.92" stop-color="#f5738d"/><stop offset="1" stop-color="#f5738d"/></linearGradient><linearGradient id="linear-gradient-2" x1="-650.13989" y1="-526.52191" x2="-649.13989" y2="-526.52191" gradientTransform="matrix(-0.46309, 44.21976, 44.21976, 0.46309, 23065.39349, 28981.80784)" xlink:href="#linear-gradient"/><linearGradient id="linear-gradient-3" x1="-649.86714" y1="-556.62783" x2="-648.86714" y2="-556.62783" gradientTransform="matrix(21.40024, -27.66031, -27.66031, -21.40024, -1489.98816, -29820.65248)" xlink:href="#linear-gradient"/><linearGradient id="linear-gradient-4" x1="-639.87563" y1="-530.43146" x2="-638.87563" y2="-530.43146" gradientTransform="matrix(21.38652, 27.67093, 27.67093, -21.38652, 28361.45399, 6393.02202)" xlink:href="#linear-gradient"/><linearGradient id="linear-gradient-5" x1="-649.19834" y1="-558.84128" x2="-648.19834" y2="-558.84128" gradientTransform="matrix(18.92896, -24.46863, -24.46863, -18.92896, -1244.13412, -26384.0075)" xlink:href="#linear-gradient"/><linearGradient id="linear-gradient-8" x1="-660.7931" y1="-520.48915" x2="-659.7931" y2="-520.48915" gradientTransform="matrix(-18.91805, 24.47709, 24.47709, 18.91805, 404.84346, 26068.6489)" xlink:href="#linear-gradient"/><linearGradient id="linear-gradient-9" x1="-652.69973" y1="-533.64001" x2="-651.69973" y2="-533.64001" gradientTransform="matrix(0, 96.07578, 96.07578, 0, 51348.04759, 62754.53165)" xlink:href="#linear-gradient"/><linearGradient id="New_Gradient_Swatch_1" x1="-657.30027" y1="-545.693" x2="-656.30027" y2="-545.693" gradientTransform="matrix(0, -96.07578, -96.07578, 0, -52349.70778, -63005.40088)" xlink:href="#linear-gradient"/></defs><title>Tactiq</title><g id="Layer_2" data-name="Layer 2"><g id="Layer_1-2" data-name="Layer 1"><path d="M83.5,0A16.5,16.5,0,1,0,100,16.5,16.50364,16.50364,0,0,0,83.5,0Zm0,25A8.5,8.5,0,1,1,92,16.5,8.50574,8.50574,0,0,1,83.5,25Z" style="fill:url(#linear-gradient)"/><path d="M83.5,0A16.5,16.5,0,1,0,100,16.5,16.50364,16.50364,0,0,0,83.5,0Zm0,25A8.5,8.5,0,1,1,92,16.5,8.50574,8.50574,0,0,1,83.5,25Z" style="fill:url(#linear-gradient-2)"/><path d="M13,36A13,13,0,1,0,26,49,12.9997,12.9997,0,0,0,13,36Zm0,18a5,5,0,1,1,5-5A5.00181,5.00181,0,0,1,13,54Z" style="fill:url(#linear-gradient-3)"/><path d="M13,36A13,13,0,1,0,26,49,12.9997,12.9997,0,0,0,13,36Zm0,18a5,5,0,1,1,5-5A5.00181,5.00181,0,0,1,13,54Z" style="fill:url(#linear-gradient-4)"/><path d="M153.5,52A11.50025,11.50025,0,1,0,165,63.5,11.5015,11.5015,0,0,0,153.5,52Zm0,15.00049A3.50025,3.50025,0,1,1,157,63.5,3.504,3.504,0,0,1,153.5,67.00049Z" style="fill:url(#linear-gradient-5)"/><path d="M153.5,52A11.50025,11.50025,0,1,0,165,63.5,11.5015,11.5015,0,0,0,153.5,52Zm0,15.00049A3.50025,3.50025,0,1,1,157,63.5,3.504,3.504,0,0,1,153.5,67.00049Z" style="fill:url(#linear-gradient-5)"/><path d="M153.5,52A11.50025,11.50025,0,1,0,165,63.5,11.5015,11.5015,0,0,0,153.5,52Zm0,15.00049A3.50025,3.50025,0,1,1,157,63.5,3.504,3.504,0,0,1,153.5,67.00049Z" style="fill:url(#linear-gradient-5)"/><path d="M153.5,52A11.50025,11.50025,0,1,0,165,63.5,11.5015,11.5015,0,0,0,153.5,52Zm0,15.00049A3.50025,3.50025,0,1,1,157,63.5,3.504,3.504,0,0,1,153.5,67.00049Z" style="fill:url(#linear-gradient-8)"/><path d="M126.88721,86.3335h-1.04883c-4.32617-22.22071-21.64111-38.80616-42.353-38.80616-16.33545,0-30.563,10.35108-37.9668,25.63819a33.91647,33.91647,0,0,0-8.792-1.14942c-19.4331,0-35.1792,16.39551-35.1792,36.61817A37.50038,37.50038,0,0,0,7.252,128.6167a30.51659,30.51659,0,0,0,25.76758,14.7168l94.79688.26953c14.98681-.44922,26.97656-13.08789,26.97656-28.61426C154.793,99.17236,142.30371,86.353,126.88721,86.3335Zm.30713,46-93.69141-.26758a18.255,18.255,0,0,1-15.46-8.85352l-.09912-.14941a25.33332,25.33332,0,0,1-3.84278-13.47852c0-13.48926,10.31006-24.44336,22.98731-24.44336a21.73127,21.73127,0,0,1,5.65527.74317,12.10759,12.10759,0,0,0,3.06006.39551A11.88114,11.88114,0,0,0,56.5,79.57471c5.58594-11.53809,15.91553-18.708,26.939-18.708,14.311,0,27.05762,12.13184,30.31592,28.84961a11.89106,11.89106,0,0,0,11.667,9.61719h1.03955c8.6958.00976,15.77734,7.418,15.77734,16.51953C142.23877,124.78662,135.64258,131.98682,127.19434,132.3335Z" style="fill:url(#linear-gradient-9)"/><path d="M126.88721,86.3335h-1.04883c-4.32617-22.22071-21.64111-38.80616-42.353-38.80616-16.33545,0-30.563,10.35108-37.9668,25.63819a33.91647,33.91647,0,0,0-8.792-1.14942c-19.4331,0-35.1792,16.39551-35.1792,36.61817A37.50038,37.50038,0,0,0,7.252,128.6167a30.51659,30.51659,0,0,0,25.76758,14.7168l94.79688.26953c14.98681-.44922,26.97656-13.08789,26.97656-28.61426C154.793,99.17236,142.30371,86.353,126.88721,86.3335Zm.30713,46-93.69141-.26758a18.255,18.255,0,0,1-15.46-8.85352l-.09912-.14941a25.33332,25.33332,0,0,1-3.84278-13.47852c0-13.48926,10.31006-24.44336,22.98731-24.44336a21.73127,21.73127,0,0,1,5.65527.74317,12.10759,12.10759,0,0,0,3.06006.39551A11.88114,11.88114,0,0,0,56.5,79.57471c5.58594-11.53809,15.91553-18.708,26.939-18.708,14.311,0,27.05762,12.13184,30.31592,28.84961a11.89106,11.89106,0,0,0,11.667,9.61719h1.03955c8.6958.00976,15.77734,7.418,15.77734,16.51953C142.23877,124.78662,135.64258,131.98682,127.19434,132.3335Z" style="fill:url(#New_Gradient_Swatch_1)"/><path d="M261.7168,44.63232a3.59873,3.59873,0,1,1,0,7.168h-19.5v65.16016a4.05015,4.05015,0,0,1-8.07715,0V51.80029H214.75488a3.59865,3.59865,0,1,1,0-7.168Z" style="fill:#230063"/><path d="M302.21875,81.01025v32.84668a4.44494,4.44494,0,0,1-3.3457,4.38672,56.58325,56.58325,0,0,1-16.61621,2.46094c-13.61524,0-22.73145-4.59961-22.73145-16.36914s10.501-16.26367,22.61621-16.26367h12.23145V81.01025c0-5.457-4.5-9.20214-12.23145-9.20214A26.54768,26.54768,0,0,0,270.60352,74.269a9.19534,9.19534,0,0,1-3.92383,1.17774,3.54929,3.54929,0,0,1-3.57715-3.31739,3.374,3.374,0,0,1,1.84668-2.99511,36.85134,36.85134,0,0,1,16.84668-4.06641C293.10352,65.06787,302.21875,70.31006,302.21875,81.01025ZM281.91113,94.812c-8.42383,0-14.53906,2.56836-14.53906,9.62988,0,7.59668,6.11523,9.52247,14.88477,9.52247a47.29036,47.29036,0,0,0,12.11621-1.71192V94.812Z" style="fill:#230063"/><path d="M354.48926,68.4917a3.47846,3.47846,0,0,1,2.19238,3.10351,3.33569,3.33569,0,0,1-3.57715,3.31641c-1.5,0-2.42285-.53516-4.03808-1.17773a28.40617,28.40617,0,0,0-10.26953-1.92578c-8.07715,0-13.26954,4.81543-13.26954,12.94726v16.2627c0,8.13183,5.07715,12.94629,13.26954,12.94629a28.3853,28.3853,0,0,0,10.26953-1.92579c1.61523-.64257,2.53808-1.17675,3.92285-1.17675a3.45476,3.45476,0,0,1,3.69238,3.42382,3.59685,3.59685,0,0,1-2.19238,3.10254c-4.38477,2.35352-9.80762,3.31641-15.46192,3.31641-13.03808,0-21.34668-7.5957-21.34668-19.68652V84.75537c0-12.30469,8.6543-19.6875,21.34668-19.6875A35.76657,35.76657,0,0,1,354.48926,68.4917Z" style="fill:#230063"/><path d="M376.41406,47.19971V66.13818h13.501c2.42285,0,3.92285,1.498,3.92285,3.53125,0,1.92578-1.5,3.42383-3.92285,3.42383h-13.501v32.41895c0,5.56347,2.88477,8.34472,7.96192,8.34472,3.11523,0,4.15429-.53418,5.65429-.53418,2.07715,0,3.80762,1.17676,3.80762,3.42383,0,1.81934-1.26953,3.10254-3.34668,3.42383a32.51917,32.51917,0,0,1-6.3457.53418c-8.88477,0-15.57715-5.13477-15.57715-15.2998V47.19971a3.6909,3.6909,0,0,1,3.92285-3.6377A3.62644,3.62644,0,0,1,376.41406,47.19971Z" style="fill:#230063"/><path d="M414.49316,50.51709a5.03857,5.03857,0,0,1-10.03906,0,5.03848,5.03848,0,0,1,10.03906,0ZM413.4541,68.70557v48.3623a3.69013,3.69013,0,0,1-3.92285,3.63672,3.6257,3.6257,0,0,1-3.92285-3.63672V68.70557a3.62644,3.62644,0,0,1,3.92285-3.6377A3.6909,3.6909,0,0,1,413.4541,68.70557Z" style="fill:#230063"/><path d="M469.76367,67.8501a4.64135,4.64135,0,0,1,3.46094,4.38672v67.62011a3.69108,3.69108,0,0,1-3.92285,3.63868,3.62663,3.62663,0,0,1-3.92285-3.63868V116.63916a28.02115,28.02115,0,0,1-14.3086,4.06543c-11.88476,0-20.65429-6.52539-20.65429-19.47266V84.648c0-13.05274,8.65429-19.58008,21.46191-19.58008A55.66967,55.66967,0,0,1,469.76367,67.8501Zm-31.501,16.26269v17.6543c0,7.81055,4.96191,12.19727,13.61523,12.19727a22.60162,22.60162,0,0,0,13.501-4.707V73.73389a47.2343,47.2343,0,0,0-13.501-1.92578C443.22461,71.80811,438.2627,76.40967,438.2627,84.11279Z" style="fill:#230063"/></g></g></svg>